<?xml version="1.0" encoding="utf-8"?>
<!-- Generator: Adobe Illustrator 18.1.1, SVG Export Plug-In . SVG Version: 6.00 Build 0)  -->
<svg version="1.1" id="Layer_1" xmlns="http://www.w3.org/2000/svg" xmlns:xlink="http://www.w3.org/1999/xlink" x="0px" y="0px"
	 viewBox="1253.7 -422 612 612" enable-background="new 1253.7 -422 612 612" xml:space="preserve">
<g>
	<g>
		<g>
			
				<rect x="1785.7" y="-153.3" transform="matrix(-0.1003 -0.995 0.995 -0.1003 2118.2495 1625.8715)" fill="none" width="17" height="17"/>
			<circle opacity="0.6" fill="#FFFFFF" cx="1794.2" cy="-144.8" r="8.5"/>
		</g>
		<g>
			
				<rect x="1780.1" y="-184.4" transform="matrix(-0.2965 -0.955 0.955 -0.2965 2486.7922 1480.1461)" fill="none" width="17" height="17"/>
			<circle opacity="0.6" fill="#FFFFFF" cx="1788.6" cy="-175.9" r="8.5"/>
		</g>
		<g>
			
				<rect x="1770.7" y="-214.7" transform="matrix(-0.2965 -0.955 0.955 -0.2965 2503.5513 1431.8372)" fill="none" width="17" height="17"/>
			<circle opacity="0.6" fill="#FFFFFF" cx="1779.2" cy="-206.2" r="8.5"/>
		</g>
		<g>
			
				<rect x="1755.9" y="-242.8" transform="matrix(-0.477 -0.8789 0.8789 -0.477 2812.0513 1204.6644)" fill="none" width="17" height="17"/>
			<circle opacity="0.6" fill="#FFFFFF" cx="1764.4" cy="-234.3" r="8.5"/>
		</g>
		<g>
			
				<rect x="1738.4" y="-269" transform="matrix(-0.6364 -0.7713 0.7713 -0.6364 3059.5425 921.0409)" fill="none" width="17" height="17"/>
			<circle opacity="0.6" fill="#FFFFFF" cx="1746.8" cy="-260.6" r="8.5"/>
		</g>
		<g>
			
				<rect x="1717.9" y="-293.3" transform="matrix(-0.7713 -0.6364 0.6364 -0.7713 3239.386 594.1696)" fill="none" width="17" height="17"/>
			<circle opacity="0.6" fill="#FFFFFF" cx="1726.4" cy="-284.8" r="8.5"/>
		</g>
		<g>
			
				<rect x="1693.4" y="-313.5" transform="matrix(-0.7713 -0.6364 0.6364 -0.7713 3208.8604 542.7837)" fill="none" width="17" height="17"/>
			<circle opacity="0.6" fill="#FFFFFF" cx="1701.9" cy="-305.1" r="8.5"/>
		</g>
		<g>
			
				<rect x="1666.9" y="-330.7" transform="matrix(-0.8789 -0.477 0.477 -0.8789 3301.4719 193.902)" fill="none" width="17" height="17"/>
			<circle opacity="0.6" fill="#FFFFFF" cx="1675.4" cy="-322.2" r="8.5"/>
		</g>
		<g>
			
				<rect x="1638.5" y="-344.8" transform="matrix(-0.955 -0.2965 0.2965 -0.955 3319.7476 -169.2989)" fill="none" width="17" height="17"/>
			<circle opacity="0.6" fill="#FFFFFF" cx="1647" cy="-336.4" r="8.5"/>
		</g>
		<g>
			
				<rect x="1608.2" y="-354.3" transform="matrix(-0.955 -0.2965 0.2965 -0.955 3263.2476 -196.6947)" fill="none" width="17" height="17"/>
			<circle opacity="0.6" fill="#FFFFFF" cx="1616.7" cy="-345.8" r="8.5"/>
		</g>
		<g>
			
				<rect x="1577" y="-359.3" transform="matrix(-0.995 -0.1003 0.1003 -0.995 3198.1907 -540.8712)" fill="none" width="17" height="17"/>
			<circle opacity="0.6" fill="#FFFFFF" cx="1585.5" cy="-350.8" r="8.5"/>
		</g>
		<g>
			
				<rect x="1545.4" y="-361.3" transform="matrix(-0.995 0.1003 -0.1003 -0.995 3064.5815 -859.7771)" fill="none" width="17" height="17"/>
			<circle opacity="0.6" fill="#FFFFFF" cx="1553.9" cy="-352.8" r="8.5"/>
		</g>
		<g>
			
				<rect x="1513.8" y="-358.2" transform="matrix(-0.995 0.1003 -0.1003 -0.995 3001.8711 -850.2543)" fill="none" width="17" height="17"/>
			<circle opacity="0.6" fill="#FFFFFF" cx="1522.3" cy="-349.7" r="8.5"/>
		</g>
		<g>
			
				<rect x="1483.1" y="-350.8" transform="matrix(-0.955 0.2965 -0.2965 -0.955 2814.5881 -1111.4307)" fill="none" width="17" height="17"/>
			<circle opacity="0.6" fill="#FFFFFF" cx="1491.6" cy="-342.3" r="8.5"/>
		</g>
		<g>
			
				<rect x="1453.2" y="-340.2" transform="matrix(-0.8789 0.477 -0.477 -0.8789 2588.1318 -1320.6307)" fill="none" width="17" height="17"/>
			<circle opacity="0.6" fill="#FFFFFF" cx="1461.7" cy="-331.8" r="8.5"/>
		</g>
		<g>
			
				<rect x="1425.3" y="-325.1" transform="matrix(-0.8789 0.477 -0.477 -0.8789 2542.9209 -1278.8552)" fill="none" width="17" height="17"/>
			<circle opacity="0.6" fill="#FFFFFF" cx="1433.8" cy="-316.6" r="8.5"/>
		</g>
		<g>
			
				<rect x="1400" y="-306.1" transform="matrix(-0.7713 0.6364 -0.6364 -0.7713 2305.4697 -1423.608)" fill="none" width="17" height="17"/>
			<circle opacity="0.6" fill="#FFFFFF" cx="1408.5" cy="-297.6" r="8.5"/>
		</g>
		<g>
			
				<rect x="1376.9" y="-284.6" transform="matrix(-0.6364 0.7713 -0.7713 -0.6364 2054.0696 -1520.3416)" fill="none" width="17" height="17"/>
			<circle opacity="0.6" fill="#FFFFFF" cx="1385.4" cy="-276.1" r="8.5"/>
		</g>
		<g>
			
				<rect x="1356.7" y="-260.1" transform="matrix(-0.6364 0.7713 -0.7713 -0.6364 2039.8921 -1464.6711)" fill="none" width="17" height="17"/>
			<circle opacity="0.6" fill="#FFFFFF" cx="1365.1" cy="-251.6" r="8.5"/>
		</g>
		<g>
			
				<rect x="1340.9" y="-232.5" transform="matrix(-0.477 0.8789 -0.8789 -0.477 1796.2147 -1516.9115)" fill="none" width="17" height="17"/>
			<circle opacity="0.6" fill="#FFFFFF" cx="1349.4" cy="-224.1" r="8.5"/>
		</g>
		<g>
			
				<rect x="1328.3" y="-203.6" transform="matrix(-0.2965 0.955 -0.955 -0.2965 1546.775 -1529.6069)" fill="none" width="17" height="17"/>
			<circle opacity="0.6" fill="#FFFFFF" cx="1336.8" cy="-195.1" r="8.5"/>
		</g>
		<g>
			
				<rect x="1318.9" y="-173.2" transform="matrix(-0.2965 0.955 -0.955 -0.2965 1563.5339 -1481.298)" fill="none" width="17" height="17"/>
			<circle opacity="0.6" fill="#FFFFFF" cx="1327.4" cy="-164.8" r="8.5"/>
		</g>
		<g>
			
				<rect x="1315.5" y="-141.7" transform="matrix(-0.1003 0.995 -0.995 -0.1003 1324.2668 -1463.8818)" fill="none" width="17" height="17"/>
			<circle opacity="0.6" fill="#FFFFFF" cx="1324" cy="-133.2" r="8.5"/>
		</g>
		<g>
			
				<rect x="1315.2" y="-110.1" transform="matrix(0.1003 0.995 -0.995 0.1003 1089.8527 -1408.4547)" fill="none" width="17" height="17"/>
			<circle opacity="0.6" fill="#FFFFFF" cx="1323.7" cy="-101.6" r="8.5"/>
		</g>
		<g>
			
				<rect x="1318.4" y="-78.5" transform="matrix(0.1003 0.995 -0.995 0.1003 1124.1534 -1383.198)" fill="none" width="17" height="17"/>
			<circle opacity="0.6" fill="#FFFFFF" cx="1326.9" cy="-70" r="8.5"/>
		</g>
		<g>
			
				<rect x="1327.5" y="-48.1" transform="matrix(0.2965 0.955 -0.955 0.2965 902.0603 -1303.7556)" fill="none" width="17" height="17"/>
			<circle opacity="0.6" fill="#FFFFFF" cx="1335.9" cy="-39.6" r="8.5"/>
		</g>
		<g>
			
				<rect x="1339.6" y="-18.9" transform="matrix(0.477 0.8789 -0.8789 0.477 695.8227 -1190.239)" fill="none" width="17" height="17"/>
			<circle opacity="0.6" fill="#FFFFFF" cx="1348.1" cy="-10.4" r="8.5"/>
		</g>
		<g>
			
				<rect x="1354.9" y="8.9" transform="matrix(0.5593 0.829 -0.829 0.5593 615.2207 -1122.4824)" fill="none" width="17" height="17"/>
			<circle opacity="0.6" fill="#FFFFFF" cx="1363.3" cy="17.4" r="8.5"/>
		</g>
		<g>
			
				<rect x="1375.1" y="33.4" transform="matrix(0.6364 0.7713 -0.7713 0.6364 535.3484 -1051.9677)" fill="none" width="17" height="17"/>
			<circle opacity="0.6" fill="#FFFFFF" cx="1383.6" cy="41.9" r="8.5"/>
		</g>
		<g>
			
				<rect x="1397.8" y="55.4" transform="matrix(0.7713 0.6364 -0.6364 0.7713 362.1922 -880.3943)" fill="none" width="17" height="17"/>
			<circle opacity="0.6" fill="#FFFFFF" cx="1406.3" cy="63.8" r="8.5"/>
		</g>
		<g>
			
				<rect x="1422.8" y="74.8" transform="matrix(0.8789 0.477 -0.477 0.8789 213.081 -672.7181)" fill="none" width="17" height="17"/>
			<circle opacity="0.6" fill="#FFFFFF" cx="1431.3" cy="83.3" r="8.5"/>
		</g>
		<g>
			
				<rect x="1450.7" y="89.9" transform="matrix(0.8789 0.477 -0.477 0.8789 223.6876 -684.1969)" fill="none" width="17" height="17"/>
			<circle opacity="0.6" fill="#FFFFFF" cx="1459.2" cy="98.4" r="8.5"/>
		</g>
		<g>
			
				<rect x="1480.4" y="101" transform="matrix(0.955 0.2965 -0.2965 0.955 99.3888 -436.4722)" fill="none" width="17" height="17"/>
			<circle opacity="0.6" fill="#FFFFFF" cx="1488.9" cy="109.5" r="8.5"/>
		</g>
		<g>
			<rect x="1511" y="108.9" transform="matrix(0.995 0.1003 -0.1003 0.995 19.436 -151.8149)" fill="none" width="17" height="17"/>
			<circle opacity="0.6" fill="#FFFFFF" cx="1519.5" cy="117.4" r="8.5"/>
		</g>
		<g>
			
				<rect x="1542.6" y="112.1" transform="matrix(0.995 0.1003 -0.1003 0.995 19.9148 -154.9678)" fill="none" width="17" height="17"/>
			<circle opacity="0.6" fill="#FFFFFF" cx="1551.1" cy="120.6" r="8.5"/>
		</g>
		<g>
			
				<rect x="1574.2" y="110.6" transform="matrix(0.995 -0.1003 0.1003 0.995 -3.9662 159.3453)" fill="none" width="17" height="17"/>
			<circle opacity="0.6" fill="#FFFFFF" cx="1582.7" cy="119.1" r="8.5"/>
		</g>
		<g>
			
				<rect x="1605.5" y="106.1" transform="matrix(0.955 -0.2965 0.2965 0.955 38.5836 483.6475)" fill="none" width="17" height="17"/>
			<circle opacity="0.6" fill="#FFFFFF" cx="1614" cy="114.6" r="8.5"/>
		</g>
		<g>
			
				<rect x="1635.9" y="96.7" transform="matrix(0.955 -0.2965 0.2965 0.955 42.7379 492.2151)" fill="none" width="17" height="17"/>
			<circle opacity="0.6" fill="#FFFFFF" cx="1644.3" cy="105.2" r="8.5"/>
		</g>
		<g>
			<rect x="1664.4" y="83" transform="matrix(0.8789 -0.477 0.477 0.8789 158.9624 809.1121)" fill="none" width="17" height="17"/>
			<circle opacity="0.6" fill="#FFFFFF" cx="1672.9" cy="91.5" r="8.5"/>
		</g>
		<g>
			
				<rect x="1691.3" y="66.4" transform="matrix(0.7713 -0.6364 0.6364 0.7713 341.023 1098.8733)" fill="none" width="17" height="17"/>
			<circle opacity="0.6" fill="#FFFFFF" cx="1699.8" cy="74.9" r="8.5"/>
		</g>
		<g>
			
				<rect x="1715.8" y="46.2" transform="matrix(0.7713 -0.6364 0.6364 0.7713 359.4852 1109.8407)" fill="none" width="17" height="17"/>
			<circle opacity="0.6" fill="#FFFFFF" cx="1724.3" cy="54.6" r="8.5"/>
		</g>
		<g>
			
				<rect x="1736.6" y="22.2" transform="matrix(0.6364 -0.7713 0.7713 0.6364 610.7648 1357.207)" fill="none" width="17" height="17"/>
			<circle opacity="0.6" fill="#FFFFFF" cx="1745" cy="30.7" r="8.5"/>
		</g>
		<g>
			
				<rect x="1754.6" y="-3.7" transform="matrix(0.477 -0.8789 0.8789 0.477 917.8275 1552.0369)" fill="none" width="17" height="17"/>
			<circle opacity="0.6" fill="#FFFFFF" cx="1763.1" cy="4.8" r="8.5"/>
		</g>
		<g>
			
				<rect x="1769.7" y="-31.6" transform="matrix(0.477 -0.8789 0.8789 0.477 950.2777 1550.7554)" fill="none" width="17" height="17"/>
			<circle opacity="0.6" fill="#FFFFFF" cx="1778.2" cy="-23.1" r="8.5"/>
		</g>
		<g>
			
				<rect x="1779.2" y="-61.9" transform="matrix(0.2965 -0.955 0.955 0.2965 1308.7655 1669.7822)" fill="none" width="17" height="17"/>
			<circle opacity="0.6" fill="#FFFFFF" cx="1787.7" cy="-53.4" r="8.5"/>
		</g>
		<g>
			
				<rect x="1785.5" y="-92.9" transform="matrix(0.1003 -0.995 0.995 0.1003 1697.9933 1708.9611)" fill="none" width="17" height="17"/>
			<circle opacity="0.6" fill="#FFFFFF" cx="1793.9" cy="-84.4" r="8.5"/>
		</g>
		<g>
			
				<rect x="1788.6" y="-124.5" transform="matrix(0.1003 -0.995 0.995 0.1003 1732.2941 1683.7043)" fill="none" width="17" height="17"/>
			<circle opacity="0.6" fill="#FFFFFF" cx="1797.1" cy="-116" r="8.5"/>
		</g>
	</g>
</g>
</svg>
