<?xml version="1.0" encoding="utf-8"?>
<!-- Generator: Adobe Illustrator 18.1.1, SVG Export Plug-In . SVG Version: 6.00 Build 0)  -->
<svg version="1.1" id="Layer_1" xmlns="http://www.w3.org/2000/svg" xmlns:xlink="http://www.w3.org/1999/xlink" x="0px" y="0px"
	 viewBox="89.3 27.3 315.1 449.1" enable-background="new 89.3 27.3 315.1 449.1" xml:space="preserve">
<path opacity="0.75" fill="#F8991D" stroke="#FFFFFF" stroke-width="0.5" stroke-miterlimit="10" enable-background="new    " d="
	M145,175.4c0-55.9,44.6-100.5,100.5-100.5S346,119.5,346,175.4S245.5,425.1,245.5,425.1S145,230.7,145,175.4z"/>
<path display="none" fill="#F8991D" stroke="#FFFFFF" stroke-width="7" stroke-miterlimit="10" d="M245.5,346.5l-34.6-77.1
	c0,0,37.2-45.3,52.6-57.9c8.6-6.6,39.3-14,45.3,3.3c5.4,14.6-5.4,23.3-18,23.3c-28-0.6-43.2-73.2,0.6-84.5
	c34.6-8.6,39.3,35.9,12,39.3c-56.6,6.6-77.8-40.6-81.9-56.6c-3.3-16,7.3-29.9,23.9-29.9c16,0,27.3,14,25.3,26.6
	c-2.7,12.6-16,34.6-29.9,45.3c-14.6,11.4-34,19.9-57.9,12.6c-22.6-7.3-13.3-43.9,8.6-39.3c50.6,12,37.9,87.9,5.4,86.6
	c-18.6-0.6-15.3-19.3-12.6-22.6c9.3-12.6,33.3-12,43.2-2.7c19.3,16.6,52,56.6,52,56.6L245.5,346.5z"/>
<g opacity="0.9">
	<path fill="#FFFFFF" d="M347.4,52.3c17.6,0,32,14.4,32,32v335v0v0c0,8.5-3.3,16.6-9.3,22.6c-6,6-14.1,9.4-22.6,9.4H146.3
		c-17.6,0-32-14.4-32-32V84.3c0-17.6,14.4-32,32-32H347.4 M347.4,27.3H146.3c-31.4,0-57,25.5-57,57v335.1c0,31.4,25.5,57,57,57
		h201.2c31.4,0,57-25.5,56.9-57.1v-335C404.4,52.9,378.9,27.3,347.4,27.3L347.4,27.3z"/>
</g>
<g display="none" opacity="0.75">
	<path display="inline" fill="#FFFFFF" d="M261.1,247.3c0,10.6-7.3,19.2-16.4,19.2s-16.4-8.6-16.4-19.2s16.4-61.6,16.4-61.6
		S261.1,236.7,261.1,247.3z"/>
	<path display="inline" fill="#FFFFFF" d="M228.4,247.3c0-10.6,16.4-61.6,16.4-61.6s16.4,50.9,16.4,61.6"/>
	<path display="inline" fill="#FFFFFF" d="M228.4,247.3c0-10.6,16.4-61.6,16.4-61.6s16.4,50.9,16.4,61.6"/>
	<path display="inline" fill="#FFFFFF" d="M228.4,247.3c0-10.6,16.4-61.6,16.4-61.6s16.4,50.9,16.4,61.6"/>
	<path display="inline" fill="#FFFFFF" d="M228.4,247.3c0-10.6,16.4-61.6,16.4-61.6s16.4,50.9,16.4,61.6"/>
	<path display="inline" fill="#FFFFFF" d="M261.1,247.3c0,10.6-7.3,19.2-16.4,19.2s-16.4-8.6-16.4-19.2s16.4-61.6,16.4-61.6
		S261.1,236.7,261.1,247.3z"/>
	<path display="inline" fill="#FFFFFF" d="M228.4,247.3c0-10.6,16.4-61.6,16.4-61.6s16.4,50.9,16.4,61.6"/>
	<path display="inline" fill="#FFFFFF" d="M228.4,247.3c0-10.6,16.4-61.6,16.4-61.6s16.4,50.9,16.4,61.6"/>
	<path display="inline" fill="#FFFFFF" d="M228.4,247.3c0-10.6,16.4-61.6,16.4-61.6s16.4,50.9,16.4,61.6"/>
	<path display="inline" fill="#FFFFFF" d="M228.4,247.3c0-10.6,16.4-61.6,16.4-61.6s16.4,50.9,16.4,61.6"/>
	<path display="inline" fill="#FFFFFF" d="M261.1,247.3c0,10.6-7.3,19.2-16.4,19.2s-16.4-8.6-16.4-19.2s16.4-61.6,16.4-61.6
		S261.1,236.7,261.1,247.3z"/>
	<path display="inline" fill="#FFFFFF" d="M228.4,247.3c0-10.6,16.4-61.6,16.4-61.6s16.4,50.9,16.4,61.6"/>
	<path display="inline" fill="#FFFFFF" d="M228.4,247.3c0-10.6,16.4-61.6,16.4-61.6s16.4,50.9,16.4,61.6"/>
	<path display="inline" fill="#FFFFFF" d="M228.4,247.3c0-10.6,16.4-61.6,16.4-61.6s16.4,50.9,16.4,61.6"/>
	<path display="inline" fill="#FFFFFF" d="M228.4,247.3c0-10.6,16.4-61.6,16.4-61.6s16.4,50.9,16.4,61.6"/>
	<path display="inline" fill="#FFFFFF" d="M261.1,247.3c0,10.6-7.3,19.2-16.4,19.2s-16.4-8.6-16.4-19.2s16.4-61.6,16.4-61.6
		S261.1,236.7,261.1,247.3z"/>
	<path display="inline" fill="#FFFFFF" d="M228.4,247.3c0-10.6,16.4-61.6,16.4-61.6s16.4,50.9,16.4,61.6"/>
	<path display="inline" fill="#FFFFFF" d="M228.4,247.3c0-10.6,16.4-61.6,16.4-61.6s16.4,50.9,16.4,61.6"/>
	<path display="inline" fill="#FFFFFF" d="M228.4,247.3c0-10.6,16.4-61.6,16.4-61.6s16.4,50.9,16.4,61.6"/>
	<path display="inline" fill="#FFFFFF" d="M228.4,247.3c0-10.6,16.4-61.6,16.4-61.6s16.4,50.9,16.4,61.6"/>
	<path display="inline" fill="#FFFFFF" d="M261.1,247.3c0,10.6-7.3,19.2-16.4,19.2s-16.4-8.6-16.4-19.2s16.4-61.6,16.4-61.6
		S261.1,236.7,261.1,247.3z"/>
	<path display="inline" fill="#FFFFFF" d="M228.4,247.3c0-10.6,16.4-61.6,16.4-61.6s16.4,50.9,16.4,61.6"/>
	<path display="inline" fill="#FFFFFF" d="M228.4,247.3c0-10.6,16.4-61.6,16.4-61.6s16.4,50.9,16.4,61.6"/>
	<path display="inline" fill="#FFFFFF" d="M228.4,247.3c0-10.6,16.4-61.6,16.4-61.6s16.4,50.9,16.4,61.6"/>
	<path display="inline" fill="#FFFFFF" d="M228.4,247.3c0-10.6,16.4-61.6,16.4-61.6s16.4,50.9,16.4,61.6"/>
	<path display="inline" fill="#FFFFFF" d="M312.4,198.4c9.2,5.3,13,16,8.5,23.7c-4.5,7.8-15.6,9.8-24.8,4.5
		c-9.2-5.3-45.2-44.9-45.2-44.9S303.3,193.1,312.4,198.4z"/>
	<path display="inline" fill="#FFFFFF" d="M295.7,129.4c9.2-5.3,20.3-3.3,24.8,4.5c4.5,7.8,0.7,18.4-8.5,23.7
		c-9.2,5.3-61.5,16.7-61.5,16.7S286.6,134.7,295.7,129.4z"/>
	<path display="inline" fill="#FFFFFF" d="M227.8,109.4c0-10.6,7.4-19.2,16.4-19.2c9,0,16.3,8.6,16.3,19.3S244,171,244,171
		S227.8,120,227.8,109.4z"/>
	<path display="inline" fill="#FFFFFF" d="M176.3,158.6c-9.2-5.2-13.1-15.9-8.6-23.7c4.5-7.8,15.6-9.9,24.8-4.6
		c9.2,5.3,45.3,44.8,45.3,44.8S185.5,164,176.3,158.6z"/>
	<path display="inline" fill="#FFFFFF" d="M193.1,227.3c-9.2,5.3-20.3,3.3-24.8-4.5c-4.5-7.8-0.8-18.4,8.5-23.7
		c9.2-5.3,61.5-16.7,61.5-16.7S202.3,222,193.1,227.3z"/>
	<path display="inline" fill="#FFFFFF" d="M228.4,247.3c0-10.6,16.4-61.6,16.4-61.6s16.4,50.9,16.4,61.6"/>
	<path display="inline" fill="#FFFFFF" d="M228.4,247.3c0-10.6,16.4-61.6,16.4-61.6s16.4,50.9,16.4,61.6"/>
	<path display="inline" fill="#FFFFFF" d="M228.4,247.3c0-10.6,16.4-61.6,16.4-61.6s16.4,50.9,16.4,61.6"/>
	<path display="inline" fill="#FFFFFF" d="M228.4,247.3c0-10.6,16.4-61.6,16.4-61.6s16.4,50.9,16.4,61.6"/>
</g>
</svg>
